<svg width="25" height="17" viewBox="0 0 25 17" xmlns="http://www.w3.org/2000/svg" xmlns:xlink="http://www.w3.org/1999/xlink"><title>icon-rewind</title><defs><path d="M14.1 9.056L2.414 16.292a1 1 0 0 1-1.526-.85V.97A1 1 0 0 1 2.415.12L14.1 7.355a1 1 0 0 1 0 1.7z" id="a"/><path d="M24.516 9.056l-11.684 7.236a1 1 0 0 1-1.526-.85V.97a1 1 0 0 1 1.526-.85l11.684 7.235a1 1 0 0 1 0 1.7z" id="b"/></defs><g fill="none" fill-rule="evenodd"><g transform="matrix(-1 0 0 1 15.396 0)"><use fill="#393A3D" xlink:href="#a"/><path stroke="#FFF" stroke-width=".5" d="M13.968 8.843a.75.75 0 0 0 0-1.275L2.284.332A.75.75 0 0 0 1.139.97V15.44a.75.75 0 0 0 1.145.638l11.684-7.236z"/></g><g transform="matrix(-1 0 0 1 36.23 0)"><use fill="#393A3D" xlink:href="#b"/><path stroke="#FFF" stroke-width=".5" d="M24.385 8.843a.75.75 0 0 0 0-1.275L12.7.332a.75.75 0 0 0-1.145.638V15.44a.75.75 0 0 0 1.145.638l11.684-7.236z"/></g></g></svg>